<?xml version="1.0" encoding="utf-8"?>
<!-- Generator: Adobe Illustrator 25.4.1, SVG Export Plug-In . SVG Version: 6.00 Build 0)  -->
<svg version="1.1" id="Layer_1" xmlns="http://www.w3.org/2000/svg" xmlns:xlink="http://www.w3.org/1999/xlink" x="0px" y="0px"
	 viewBox="0 0 240 74.2" style="enable-background:new 0 0 240 74.2;" xml:space="preserve">
<style type="text/css">
	.st0{fill:#333333;}
</style>
<g id="MRs0qU_3_">
	<g>
		<path class="st0" d="M239.7,72.6c-47.4,0-94.5,0-141.9,0c0-0.4-0.2-0.7-0.2-1.1c0-0.4,0-0.9,0-1.3c0-22,0-44.3,0-66.3
			c0-0.7-0.2-1.5,0.4-2.2c1.3,0,2.6,0.2,3.7,0.2c33.7,0,67.7,0,101.4,0c11.9,0.7,23.6,0.2,35.5,0.4c0.2,0,0.7,0,0.9,0
			C239.9,3.8,240.2,69.7,239.7,72.6z M154.4,45.5c0.2,1.1,0.2,1.8,0.4,2.6c0.4,2,1.3,3.5,3.1,4.2c1.5,0.7,3.3,0.9,4.8,0.4
			c3.5-0.9,6.2-2.9,8.4-5.5c2.9-3.5,4.6-7.5,4.2-11.9c-0.2-3.1-1.8-5.5-5.3-5.9c-1.8-0.2-3.5,0-5.1,0.9c-4.2,2.2-7.3,5.7-9,10.1
			c-0.4,1.1-1.1,2-2,2.9c-1.5,1.1-3.1,2.2-4.6,3.3c0,0-0.2,0-0.4,0c-0.2-0.2-0.4-0.2-0.7-0.4c0.2-0.7,0.4-1.3,0.7-1.8
			c1.3-3.3,2.4-6.6,3.7-9.9c0.4-1.1,0.9-2.2,0.4-3.7c-0.2-0.2-0.7-0.7-0.9-0.9c-0.7-0.2-1.3-0.2-2-0.4c-0.9,0.4-2,0.7-2.9,1.1
			c-1.3,0.9-2.6,2-3.7,2.9c-2.4,2.2-4.4,4.8-6.4,7.3c-0.2,0.2-0.4,0.4-0.7,0.7c-0.2-0.4,0-0.7,0-0.9c1.8-5.1,3.5-10.1,5.3-15.4
			c0.7-1.8,1.5-3.7,1.1-5.7c-1.3-1.3-1.5-1.3-4.8-0.9c-2.6,11-6.4,21.8-9.7,32.8c0.7,0.7,1.3,1.3,1.8,1.8c1.3,0.2,2.2-0.2,2.9-1.1
			c0.4-0.4,0.7-0.9,0.9-1.5c2-3.5,4-7.1,6.6-10.1c1.3-1.5,2.6-2.9,4.2-4.4c0.7-0.7,1.5-1.1,2.6-0.7c-0.2,0.4-0.2,1.1-0.4,1.5
			c-0.4,1.1-0.9,2-1.3,3.1c-1.1,2.9-2.2,5.7-3.3,8.6c-0.2,0.9-0.2,1.8-0.2,2.6c0.4,1.3,2.9,2.6,4.2,1.8c0.9-0.7,1.8-1.1,2.6-1.8
			C151.1,49.4,152.9,47.7,154.4,45.5z M103.3,49c-0.7,0.7-1.3,1.1-1.8,1.8c-1.8,2.2-1.5,5.3,0.7,6.6c0.7,0.4,1.3,0.7,2,0.9
			c2.9,0.7,5.9,0.7,8.8,0.2c4.2-0.7,7.9-2.9,10.6-6.4c2.9-3.7,3.3-9.3,0.2-13.2c-2-2.6-4.6-4.4-6.8-6.6c-0.9-0.9-2-2-2.6-3.1
			c-1.5-2.4-0.9-4.4,0.4-6.2c1.1-1.3,2.6-2.2,4.4-2.6c1.3-0.4,2.6-0.9,4.2-0.7c-0.2,0.9-0.2,1.5-0.4,2.4c-0.2,1.1-0.2,2.4,0.2,3.5
			c0.4,1.1,1.3,1.5,2.4,1.8c0.9,0.2,1.3-0.2,1.5-0.7c0.7-5.1,2-9.7,6.2-13c-1.5-2-5.1-2.2-6.8,0c-0.9,1.1-1.5,2-2.2,3.3
			c0,0.2-0.2,0.4-0.4,0.9c-0.7-0.9-1.3-1.5-1.8-2.2c-1.3,0-2.4,0-3.5,0.2c-3.7,1.1-7.1,3.1-9,6.6c-2.4,4.2-2.4,8.2,0.7,11.9
			c1.3,1.5,2.9,2.6,4.2,4c1.3,1.3,2.9,2.6,4,4c1.8,2,2,5.1,0.4,7.3c-1.1,1.5-2.6,2.9-4.6,3.3c-1.1,0.7-2.6,0.7-4.2,0.4
			C107.1,53.4,104.6,52.3,103.3,49z M177.1,64c1.5-7.9,4.2-15.6,6.4-23.4c3.1-3.5,6.8-6.2,8.4-5.9c0.2,0.2,0.7,0.7,0.9,0.9
			c0,4.8-2,8.6-5.9,11.5c-1.1,0.9-2.4,1.3-4,1.3c-0.2,0-0.4,0-0.7,0c0.2,1.3,0.4,2.4,0.9,3.1c0.9,1.3,2.4,1.8,4,1.3
			c1.3-0.7,2.6-1.3,3.5-2.2c2.9-2.4,4.6-5.3,6.2-8.8c1.1-2.4,1.5-4.8,1.5-7.5c0-1.3-0.4-2.2-1.3-3.1c-0.9-0.9-1.8-1.3-3.1-1.5
			c-1.1,0.7-2.2,1.1-3.3,2c-1.1,0.7-2,1.5-2.9,2.2c-0.9,0.9-1.8,1.8-2.9,2.6c0.7-2.6,2-5.1,2-7.7c-1.8-1.3-3.5-1.1-5.3-0.2
			c0,0.7,0,1.1-0.2,1.8c-0.9,3.1-1.8,6.4-2.6,9.5c-0.2,0.9-0.7,1.5-1.3,2c-0.7,0.7-1.3,1.3-2,2c-0.4,0.7-1.1,1.5-0.4,2.4
			c0.7-0.4,1.3-0.9,2-1.5c-1.8,6.2-4,11.7-4.6,17.8c0.4,0.4,1.1,1.1,1.5,1.5C175.4,64,176.2,64,177.1,64z"/>
		<path class="st0" d="M3.7,23.6c-0.9-1.5-2.4-1.8-3.5-2.4c0-0.4,0-0.7,0-1.1c0.2,0,0.4-0.2,0.7-0.2c6.2,0,12.3,0,18.3,0
			c0.9,0,1.5,0,2.4-0.2c0,0.2,0.2,0.2,0.2,0.4c0,2.4,0,4.6,0,7.3c-0.7,0-1.1,0.2-1.8,0.2c-0.4-1.1-0.9-2-1.1-2.9
			c-0.4-1.1-1.3-2-2.6-2c-2.4-0.4-5.1,0-7.5-0.2c0,4.2,0,7.9,0,11.9c2.2,0.2,4.4,0.2,6.4,0c1.5-0.9,2-2.4,2.6-3.7c0.4,0,0.9,0,1.3,0
			c0.4,0.4,0.4,6.4,0.2,10.8l-0.2,0.2c-0.4,0-0.9,0-1.3,0c-0.7-1.1-0.7-2.9-2.4-4c-2-0.2-4.2-0.2-6.4-0.4c0,0.7-0.2,1.1-0.2,1.5
			c0,2.4,0,4.8,0,7.5c0,2.9,0.7,3.5,3.1,4.4c0.4,0.2,1.1,0.4,1.8,0.7c-0.2,0.4-0.2,0.9-0.2,1.3c-4.4,0-8.8,0-13.2,0
			c0-0.4-0.2-0.7-0.2-1.1c1.1-0.9,2.9-1.1,3.5-2.6C3.7,40.4,3.7,32,3.7,23.6z"/>
		<path class="st0" d="M72.2,49c1.1,1.5,2.4,1.8,3.5,2.4c0,0.2,0,0.7,0,1.1c-0.4,0.2-8.8,0.4-11.9,0.2c0-0.4,0-0.7,0-1.1
			c0.9-0.4,1.8-0.9,2.6-1.3c0.9-1.1,0.9-1.8,0.9-2.6c0-3.5,0-7.3,0-10.8c0-0.4,0-0.9,0-1.1c-0.2-1.8-1.3-2.9-2.9-3.3
			c-1.3-0.4-4.6,0.2-6.4,1.1c0.2,5.1-0.2,10.4,0.4,15.6c0.7,1.5,2.4,1.5,3.5,2.6c-0.2,0.2-0.2,0.7-0.4,0.9
			c-4.2,0.4-10.6,0.2-12.1-0.2c0.2-0.4,0.2-0.7,0.4-0.9c0.7-0.2,1.3-0.7,1.8-0.9c1.1-0.4,1.5-1.3,1.5-2.4c0-4.4,0-9,0-13.4
			c0-0.7-0.2-1.5-0.4-2.2c-1.1-0.7-2-1.1-2.9-1.8c0-0.2,0-0.7,0-1.1c2.6-0.2,5.3-0.4,8.2-0.9c0,0.9,0.2,1.8,0.2,2.6
			c0.9-0.4,1.8-0.9,2.6-1.3c1.5-0.9,3.1-1.3,4.8-1.3c1.5,0,3.1,0.2,4.4,1.1c1.3,1.1,2,2.4,2,4c0,2,0,4.2,0,6.2
			C72.2,43,72.2,46.1,72.2,49z"/>
		<path class="st0" d="M35.2,53.2c-3.7,0.2-6.8-1.3-8.8-4.6c-0.4-0.9-0.9-1.8-1.1-2.9c-1.1-4.4-0.9-8.6,1.5-12.6
			c1.8-2.9,4.6-4.6,8.2-4.8c1.5,0,3.1-0.2,4.6,0.2c3.7,1.1,5.7,3.5,6.8,7.1c0.9,3.5,0.7,6.8-0.4,10.4c-1.3,4.2-5.5,7.3-9.7,7.1
			C35.7,53.2,35.4,53.2,35.2,53.2z M41.4,41.5C41.4,41.5,41.2,41.5,41.4,41.5c-0.2-0.9,0-1.5-0.2-2.4c-0.2-2-0.4-3.7-1.5-5.5
			S37,31.1,35,31.1c-2.2,0.2-3.7,1.3-4.4,3.5c-0.2,0.9-0.2,2-0.4,3.1c-0.7,2.4,0,4.8,0.4,7.3c0.2,0.9,0.4,1.8,0.9,2.4
			c0.9,1.5,2.2,2.4,4,2.6c3.1,0.2,4.6-1.5,5.3-4.2C41.2,44.6,41.2,43,41.4,41.5z"/>
		<path class="st0" d="M93.6,48.8c-0.2,1.1-0.4,2.2-0.4,3.3c-2.9,0.9-5.7,1.5-8.8,0.7c-1.8-0.4-3.1-1.8-3.5-3.5
			c-0.2-1.1-0.4-2.2-0.4-3.5c0-3.7,0-7.3,0-11c0-0.7,0-1.3,0-1.8c-0.9-0.9-2-0.2-3.1-0.7c0-0.4,0-0.9,0-1.3c0.2-0.2,0.7-0.2,0.9-0.4
			c2.2-0.9,3.3-2.9,4-5.3c0.2-1.1,0.4-2.2,0.7-3.3c0.4,0,0.9-0.2,1.1-0.2c0.4,0,0.7,0,1.3,0c0,2.6,0,5.1-0.2,7.7c1.3,0,2.4,0,3.7,0
			c1.1,0,2.4-0.2,3.5,0.2c0,0.7,0,1.3,0,2.2c-2.2,0.4-4.6-0.2-7.3,0.4c-0.2,2.4,0,4.8,0,7.5c0,2.4-0.2,4.8,0.4,7.5
			c0.7,1.3,2,2,3.5,1.8c0.9,0,2-0.2,2.9-0.4C92.5,48.8,92.9,48.8,93.6,48.8z"/>
		<path class="st0" d="M167.7,32.2c2,0.4,2.4,1.8,2.4,3.5c0,4.2-1.1,7.9-3.5,11.2c-0.7,0.9-1.5,1.8-2.6,2.4
			c-0.7,0.4-1.5,0.7-2.4,0.4c-0.4-0.4-0.9-0.9-1.1-1.1C159.7,41.1,162.6,34.4,167.7,32.2z"/>
	</g>
</g>
</svg>
