<?xml version="1.0" encoding="utf-8"?>
<!-- Generator: Adobe Illustrator 25.4.1, SVG Export Plug-In . SVG Version: 6.00 Build 0)  -->
<svg version="1.1" id="Camada_1" xmlns="http://www.w3.org/2000/svg" xmlns:xlink="http://www.w3.org/1999/xlink" x="0px" y="0px"
	 viewBox="0 0 248 81.3" style="enable-background:new 0 0 248 81.3;" xml:space="preserve">
<style type="text/css">
	.st0{fill:#333333;}
	.st1{fill-rule:evenodd;clip-rule:evenodd;}
</style>
<g>
	<path class="st0" d="M4,27.9v49.9h50.7V53H29.6V27.9H4z"/>
	<path class="st1" d="M87.6,37.9c0-3.4-2.3-5.3-6.2-5.3c-2,0-3.6,0.5-4.7,1.4c-1.1,0.9-1.7,2.3-1.7,3.9c0,3.4,2.3,5.3,6.2,5.3
		C85.3,43.3,87.6,41.3,87.6,37.9z M72.3,43v-6.3c0-1.3-0.2-2.1-0.7-2.7c-0.6-0.8-1.7-1.2-3.1-1.2c-1.5,0-2.4,0.5-3.5,1.7
		c0-0.2-0.1-1.3-0.1-1.5h-4.1c0.1,0.9,0.1,1.6,0.1,2.6V43H65v-5.4c0-0.7,0.1-1.2,0.2-1.7c0.2-0.6,0.7-1,1.4-1c0.7,0,1.1,0.4,1.3,0.8
		c0.2,0.5,0.2,0.9,0.2,1.7V43L72.3,43L72.3,43z M53.3,31.3h4.1v-2.8h-4.1V31.3z M53.3,43h4.1V32.9h-4.1V43z M50.8,43v-2.7h-6.4V28.4
		h-4.5V43H50.8z M83.4,37.9c0,1.8-0.5,3.3-2,3.3c-0.8,0-1.3-0.4-1.6-1.1c-0.3-0.6-0.5-1.5-0.5-2.2c0-1.8,0.5-3.3,2-3.3
		C82.9,34.6,83.4,36.1,83.4,37.9 M244,67.6v-9.5h-23.7V47.3h21.8v-9.4h-21.8v-9.8h22.9v-9.5h-37.9v49L244,67.6L244,67.6z
		 M200.7,36.1c0-10.8-5.3-18.2-16.1-18.2c-5.3,0-9,1.7-12.1,5.7l-0.1-4.8h-14.3c0.1,1.4,0.2,7.2,0.2,8.7v40h14.4V49.6
		c3.4,4,6.5,5.4,11.7,5.4C195.4,55,200.7,47.2,200.7,36.1L200.7,36.1z M162.8,3.5h-15L137.4,25l-9.9-21.5h-16.6l18,32.4v18.4h15.5
		v-18L162.8,3.5L162.8,3.5z M115,54.2v-8.7c-1.8,0.2-2.6,0.3-3.6,0.3c-2.2,0-3.4-0.5-4.2-1.4c-0.8-0.9-0.9-4.4-0.9-5.6V27.6h8.7
		v-8.8h-8.7v-12l-13.8,5.3v6.7H86v8.8h6.5v15.5c0,9.5,3.7,11.7,13.9,11.7C109,54.8,112,54.5,115,54.2L115,54.2z M186,36.4
		c0,6.6-1.6,11.4-6.9,11.4c-5.1,0-6.6-5-6.6-11.4c0-6.1,1.7-11.1,6.9-11.1C184.4,25.3,186,30.1,186,36.4"/>
</g>
</svg>
