<?xml version="1.0" encoding="utf-8"?>
<!-- Generator: Adobe Illustrator 25.4.1, SVG Export Plug-In . SVG Version: 6.00 Build 0)  -->
<svg version="1.1" id="layer" xmlns="http://www.w3.org/2000/svg" xmlns:xlink="http://www.w3.org/1999/xlink" x="0px" y="0px"
	 viewBox="0 0 248 133" style="enable-background:new 0 0 248 133;" xml:space="preserve">
<style type="text/css">
	.st0{fill:#333333;}
</style>
<g>
	<path class="st0" d="M111.2,51.6c-0.4-1.2-1.1-2.3-2-3.2c-0.8-0.8-1.8-1.2-2.9-1.2c-1-0.1-2,0.4-2.6,1.2c-0.9,1.4-1.8,2.8-2.5,4.3
		l-4.6,9.2c1.1-5.6,1.9-9.7,2.4-12.4c0.4-2,0.7-4.1,0.8-6.2c0-1-0.2-2-0.6-3c-0.4-1-0.9-1.9-1.6-2.7c-0.6-0.8-1.4-1.6-2.3-2.1
		c-0.8-0.5-1.8-0.8-2.8-0.8l0,0c-0.4,0-0.9,0.1-1.3,0.3c-0.5,0.2-0.9,0.5-1.3,1c-0.6,0.6-1.1,1.4-1.5,2.2c-0.6,1-1.2,2.2-2,3.8
		l-6.2,12.2c0.5-4,0.9-7.4,1.2-10.1c0.4-2.7,0.7-5,0.9-6.8c0.2-1.8,0.4-3.4,0.5-4.6c0.1-1.2,0.2-2.3,0.2-3.3c0-1.6-0.2-3.1-0.8-4.6
		c-0.5-1.3-1.2-2.5-2.1-3.6c-0.8-0.9-1.7-1.7-2.8-2.3c-0.8-0.5-1.8-0.8-2.8-0.9c-0.6,0-1.2,0.1-1.8,0.4c-0.6,0.3-1.1,0.8-1.5,1.3
		c-0.6,0.8-1.1,1.8-1.5,2.8c-0.5,1.2-1.1,2.8-1.7,4.8L59.4,54l0.9-20.4c0.1-1.8-0.2-3.5-0.6-5.2c-0.4-1.5-1.1-2.9-2-4.2
		c-0.8-1.1-1.7-2-2.8-2.8c-1-0.6-2-1-3.2-1c-1,0-2.1,0.4-2.9,1c-0.9,0.7-1.9,2.1-2.9,4.3c-1.3,3-2.4,6.1-3.2,9.3
		c-1.1,4.1-2.4,9.5-3.8,16.2c-1,4.9-1.8,9-2.5,12.3c-0.5,2.7-1.2,5.4-2.1,7.9c-0.8,2-1.7,3.4-2.7,4.3c-1,0.9-2.5,1.3-4.3,1.3
		c-1.6,0-3.2-0.2-4.7-0.6c-1.6-0.4-3.1-1-4.6-1.6c-1.4-0.6-2.7-1.4-3.9-2.3c-1-0.7-1.9-1.6-2.6-2.6c1.9-0.6,3.8-0.9,5.8-0.9
		c1.7,0,3.4,0.1,5,0.4c1.2,0.2,2.5,0.3,3.7,0.4c1.2,0,1.9-0.6,1.9-1.8c0-0.9-0.4-1.7-0.9-2.4c-0.7-1-1.6-1.9-2.6-2.5
		c-1.3-0.9-2.8-1.5-4.3-2c-1.9-0.6-3.8-0.8-5.8-0.8c-3.4,0-6,0.8-7.7,2.4C5,64.1,4,66.3,4,68.6c0,2.1,0.6,4.1,1.8,5.8
		c1.3,1.8,2.9,3.4,4.8,4.6c2.2,1.4,4.6,2.4,7,3c2.8,0.7,5.6,1.1,8.5,1.1c2.2,0,4.4-0.4,6.4-1.3c1.7-0.8,3.2-2,4.5-3.4
		s2.2-3.1,2.9-4.9c0.8-1.9,1.4-3.8,1.8-5.8l3.1-15.1c0.6-3,1.2-5.6,1.8-7.9c0.5-2.3,1-4.3,1.4-6s0.8-3.2,1.2-4.5
		c0.4-1.3,0.7-2.4,1-3.3c0.4,0.5,0.6,2.2,0.6,5.1c0,3-0.1,6.3-0.4,9.9c-0.2,3.6-0.4,7.3-0.4,11.1c0,1.6,0.2,3.2,0.6,4.8
		c0.3,1.4,0.8,2.7,1.5,3.9c0.6,1,1.3,1.9,2.3,2.6c0.8,0.6,1.8,0.9,2.8,1c1.2,0,2.4-0.6,3-1.7c1-1.8,1.8-3.7,2.4-5.6L73.3,30
		c0.2,0.8,0.3,1.6,0.3,2.5c0,2-0.2,3.9-0.4,5.8c-0.3,2.4-0.6,5-1,8c-0.3,2.6-0.6,4.8-0.8,6.6c-0.2,1.7-0.4,3.2-0.4,4.3
		c-0.1,1.1-0.2,2-0.2,2.6s0,1.2,0,1.6c0,2.3,0.4,4.5,1.5,6.6c1,1.8,2.2,2.8,3.6,2.8c0.9,0,1.7-0.4,2.3-1c0.9-1,1.6-2.1,2.2-3.3
		l10.8-21.7c0,1.3-0.2,2.6-0.4,3.9c-0.3,1.8-0.6,3.8-1,6c-0.4,2.2-0.7,4.5-1,6.8c-0.3,2.1-0.5,4.2-0.5,6.2c0,1.2,0.2,2.4,0.6,3.5
		c0.3,0.9,0.8,1.8,1.4,2.5c0.5,0.6,1.1,1.1,1.8,1.5c0.6,0.3,1.2,0.5,1.8,0.5c0.9,0,1.7-0.5,2.4-1.6c0.7-1,1.6-2.7,2.7-4.9l6.6-13.4
		c-0.2,4.6-0.6,9.2-1.3,14c-0.6,4.7-1.6,9.4-2.8,14c-1.2,4.4-2.7,8.7-4.6,12.9c-1.7,3.8-3.8,7.4-6.5,10.7c-2.4,3-5.4,5.4-8.7,7.2
		c-3.4,1.8-7.2,2.7-11,2.7c-1,0-2,0-2.9-0.1c-0.9-0.1-1.8-0.2-2.7-0.4c-1-0.2-2-0.5-3-0.9c-1-0.4-2.2-0.8-3.4-1.4
		c-0.5-0.2-1.1-0.3-1.7-0.2c-0.5,0.2-0.8,0.7-0.8,1.6c0,2.4,1.3,4.2,4,5.6c2.6,1.4,6,2,10.2,2c4.6,0.1,9.2-0.8,13.5-2.7
		c4-1.8,7.6-4.2,10.8-7.2c3.2-3.1,6-6.7,8.2-10.6c2.4-4.1,4.2-8.5,5.7-13c1.5-4.6,2.6-9.4,3.3-14.1c0.7-4.7,1.1-9.4,1.1-14.2
		c0-1.9-0.1-3.8-0.4-5.6C112.1,54.7,111.7,53.1,111.2,51.6z"/>
	<path class="st0" d="M231.7,30.6c-1.5,0-3.1,1-4.9,2.9s-3.4,4.8-4.3,8.5l0,0c-1.7,2.2-3,4.4-4.5,6.8c-1.6,2.4-3.1,4.6-4.6,6.6
		c-1.4,2-2.8,3.8-4,5.4c-0.9,1.2-1.9,2.3-3,3.3c0-0.7,0-1.8,0.2-3.4c0.1-1.6,0.2-3.6,0.4-5.8c0.2-2.2,0.4-4.8,0.7-7.5
		c0.2-2.8,0.6-5.7,0.9-8.7c1.3,0.1,2.5,0.2,3.4,0.2c1,0,1.9,0,2.8,0c0.7,0,1.4-0.2,1.9-0.5c0.6-0.4,1.2-0.8,1.7-1.4
		c0.5-0.6,1-1.2,1.3-1.9c0.3-0.7,0.5-1.4,0.5-2.2c0-0.5-0.1-1-0.4-1.4c-0.3-0.4-0.8-0.6-1.5-0.6l-9.1,0.2l1.3-12
		c0.1-0.9,0.1-1.8-0.2-2.6c-0.2-0.9-0.9-1.4-1.9-1.4c-0.7,0-1.4,0.4-2.1,1.3c-0.8,1-1.5,2.1-2,3.3c-0.7,1.4-1.3,3-1.8,4.5
		c-0.6,1.5-1,3.1-1.2,4.7l-0.4,2.3l-6.6,0.1c-2.8,0-4.9,0.5-6.2,1.5c-1.2,1-1.9,1.9-1.9,2.7c0,0.2,0.1,0.5,0.2,0.7
		c0.2,0.3,0.6,0.4,1,0.5c0.8,0.2,1.5,0.3,2.3,0.4c1,0.1,2.4,0.3,4.2,0.4l5.9,0.5l-1.1,8.1l0,0c-0.4,0.9-1.2,2.2-2,3.7
		c-0.9,1.6-1.8,3.2-2.9,5c-1,1.8-2.2,3.6-3.2,5.4c-1.1,1.8-2.1,3.4-2.9,4.7c0.3-1.8,0.5-3.6,0.7-5.6c0.2-1.9,0.4-3.8,0.6-5.5
		c0.2-1.7,0.4-3.3,0.5-4.7c0.1-1.4,0.2-2.6,0.2-3.4c0-1-0.2-1.9-0.6-2.7c-0.4-0.8-0.9-1.5-1.5-2.1c-0.6-0.6-1.3-1-2-1.3
		c-0.6-0.3-1.3-0.4-2-0.4c-0.6,0-1.1,0.2-1.6,0.6c-0.7,0.6-1.2,1.4-1.6,2.2c-0.6,1.1-1.4,2.6-2.5,4.6c-1,2-2.4,4.6-4,7.9
		c0.1-0.9,0.3-1.9,0.4-3c0.2-1.1,0.3-2.2,0.4-3.2c0.1-1,0.2-2,0.3-2.9c0.1-0.9,0.1-1.7,0.1-2.3c0.1-2.1-0.4-4.1-1.5-5.9
		c-1-1.6-2.2-2.4-3.7-2.4c-1.3,0-2.6,0.3-3.9,0.7c-1.6,0.5-3.1,1.2-4.5,2c-1.6,0.9-3.2,2-4.7,3.2c-1.6,1.3-3,2.7-4.3,4.3
		c-0.1-0.8-0.4-1.6-0.9-2.3c-0.5-0.8-1.4-1.2-2.7-1.2l0,0l-1.8,0c-1,0-2.4,0.1-3.9,0.2s-3.2,0.1-5.1,0.2l-5.5,0.2l1.7-12.7
		c3.8,0,7.8,0,11.8,0c4,0,7.7-0.2,11.1-0.2s6.2-0.1,8.4-0.1h3.7c1.2,0,2.4-0.2,3.4-0.7c1-0.4,2-1.1,2.7-1.9c0.7-0.8,1.3-1.6,1.7-2.6
		c0.4-0.8,0.6-1.7,0.6-2.6c0-0.9-0.3-1.5-0.8-1.7c-0.7-0.2-1.4-0.3-2.2-0.2l-39.8,1.1c-0.1-3.2-0.7-5.8-1.6-7.9
		c-0.9-2.1-2.2-3.1-4-3.1c-0.5,0-0.9,0.2-1.3,0.5c-0.5,0.5-0.9,1.1-1.1,1.7c-0.4,1.1-0.7,2.3-0.9,3.4c-0.3,1.5-0.5,3.4-0.8,5.6
		l-16.1,0.5c-1,0-2,0.2-2.9,0.5c-0.8,0.3-1.2,1-1.2,2.1c0,0.6,0.2,1.2,0.5,1.7c0.4,0.7,0.9,1.4,1.5,1.9c0.8,0.6,1.6,1.2,2.5,1.5
		c1.2,0.4,2.4,0.6,3.6,0.5h11L122.5,42c-2.5,0.1-4.4,0.7-5.8,1.7c-1.3,1-2,2.2-2,3.4c0,0.5,0.2,1,0.5,1.3c0.3,0.3,0.9,0.5,1.8,0.5
		c0.4,0,1,0,1.8,0s1.8-0.1,2.8-0.2l-2.4,19.6c-0.3,2.5-0.5,4.5-0.6,6c-0.2,1.5-0.2,2.5-0.2,2.9c0,0.8,0.1,1.6,0.6,2.2
		c0.4,0.5,1,0.8,1.9,0.8c0.9,0,1.8-0.3,2.5-0.8c1-0.7,1.7-1.6,2.2-2.7c0.8-1.6,1.5-3.4,2-5.2c0.7-2.6,1.3-5.4,1.6-8.1l2.3-15.3
		c1.6-0.1,3.3-0.2,4.9-0.3l4.6-0.2c-1.1,2.4-2,4.8-2.6,7.3c-0.7,2.5-1.1,5-1.2,7.6c0,3.6,0.8,6.3,2.5,8.1c1.6,1.8,3.8,2.7,6.6,2.7
		c2,0,4-0.6,5.8-1.7c1.7-1.2,3.1-2.8,4.2-4.6c1.2-2.1,2-4.3,2.5-6.6c0.6-2.6,0.9-5.3,0.9-7.9c0-1,0-2.4-0.2-3.9
		c-0.1-1.5-0.2-2.7-0.4-3.4l0,0c0.3-0.3,0.8-0.6,1.4-1c0.6-0.4,1.3-0.8,1.9-1.2c0.7-0.4,1.4-0.7,2.1-1c0.5-0.3,1.1-0.5,1.6-0.7
		c0,1-0.1,2.8-0.4,5.1c-0.3,2.4-0.5,4.9-0.8,7.5c-0.3,2.7-0.5,5.3-0.8,7.8c-0.2,2.5-0.4,4.4-0.4,5.6c0,1.4,0.4,2.8,1.4,3.9
		c0.9,1,1.9,1.6,3,1.6c0.5,0,1-0.2,1.4-0.6c0.8-0.8,1.4-1.8,2-2.8c0.9-1.4,2-3.5,3.3-6.2l5.4-11c0,1.4-0.1,2.8-0.3,4.1
		c-0.2,1.8-0.4,3.6-0.7,5.4c-0.2,1.8-0.5,3.6-0.7,5.2c-0.2,1.1-0.2,2.3-0.3,3.4c0,0.9,0.2,1.7,0.6,2.5c0.8,1.4,2,2.5,3.4,3.1
		c0.6,0.3,1.4,0.4,2.1,0.4c0.8,0,1.6-0.3,2.1-1c0.6-0.6,1.3-1.6,2.3-2.9c0.4-0.5,0.9-1.3,1.5-2.4c0.6-1.1,1.3-2.2,2-3.6
		c0.7-1.3,1.5-2.8,2.3-4.3c0.8-1.6,1.6-3.1,2.3-4.6c-0.1,0.8-0.1,1.7-0.2,2.6s0,1.8,0,2.5c0,1,0.2,2,0.6,3c0.4,1,0.9,1.9,1.6,2.7
		c0.7,0.8,1.5,1.4,2.4,1.9c0.9,0.5,1.9,0.8,2.9,0.8c2.2,0,5-1.7,8.1-5.1c3.2-3.4,6.5-8.4,10.2-14.8c0.6,1.8,1,3.7,1.4,5.6
		c0.4,2,0.8,3.9,1.1,5.6c-1.4,1-2.6,2-3.5,2.7c-1,0.8-1.8,1.4-2.4,2c-0.6,0.5-1,1-1.4,1.7c-0.3,0.5-0.4,1.1-0.4,1.7
		c0,1.6,0.8,3,2.4,4.2c1.6,1.1,3.5,1.8,5.4,1.7c2.6,0,4.8-1.2,6.4-3.4c1.6-2.3,2.4-5.2,2.4-8.8c0-3.6-0.4-7.2-1.3-10.6
		c-0.9-3.6-1.8-7.4-3-11.1c1-1.4,1.9-2.6,2.6-3.6c0.6-0.8,1.1-1.7,1.5-2.5c0.3-0.5,0.6-1.1,0.8-1.7c0.1-0.4,0.2-0.8,0.2-1.2
		c0-0.9-0.3-1.7-0.9-2.4C233.6,30.9,232.8,30.6,231.7,30.6z M150.6,65.4c-0.6,1.4-1.2,2.1-2,2.1c-0.7,0-1.2-0.4-1.5-1.2
		c-0.4-1-0.6-2.1-0.5-3.1c0-2.5,0.6-5,1.6-7.3c1-2.4,2-4.5,3-6.4c0,0.8,0,2,0.2,3.7c0.1,1.7,0.2,3.4,0.2,5.1
		C151.4,61.6,151.1,64,150.6,65.4z"/>
	<path class="st0" d="M240.7,76.3c0.4-0.4,0.7-0.9,0.7-1.5c0-0.9-0.6-1.3-1.7-1.3c-1,0-1.5,0.2-1.5,0.7c0,0.1,0.1,0.2,0.3,0.2h0.5
		c-0.2,0.9-0.4,1.3-0.4,1.7c-0.1,0.3-0.1,0.6-0.2,0.8c0,0.6,0.2,0.9,0.6,0.9c0.3,0,0.4-0.4,0.5-1.2l0.4,0.4c0.2,0.2,0.3,0.4,0.4,0.6
		c0.1,0.2,0.3,0.3,0.5,0.3c0.3,0,0.6-0.2,0.7-0.5c0,0,0-0.1,0-0.2C241.5,76.9,241.2,76.5,240.7,76.3z M240.1,76.1
		c-0.2-0.1-0.4-0.2-0.6-0.2l0.2-1.4c0.4,0,0.6,0.2,0.6,0.7C240.3,75.5,240.2,75.8,240.1,76.1z"/>
	<path class="st0" d="M243,72.7c-0.6-0.6-1.6-1-2.8-1c-1.2-0.1-2.3,0.4-3.1,1.4c-0.8,1-1.1,2.2-1.1,3.4c0,1,0.3,2,1,2.6
		c0.7,0.6,1.7,1,2.6,1c1.2,0,2.4-0.4,3.1-1.4c0.8-1,1.2-2.2,1.2-3.5C244,74.3,243.7,73.3,243,72.7z M242,78.2c-0.5,0.6-1.3,1-2.1,1
		c-0.8,0-1.6-0.3-2.1-0.9c-0.5-0.6-0.7-1.4-0.7-2.1c0-0.9,0.2-1.8,0.7-2.5c0.5-0.7,1.3-1.1,2.2-1c1,0,1.7,0.3,2.1,0.9
		c0.4,0.6,0.7,1.3,0.6,2C242.8,76.7,242.5,77.6,242,78.2L242,78.2z"/>
	<path class="st0" d="M139.2,97.8c0-0.4,0.2-0.6,0.7-0.6s0.7,0.2,0.7,0.6v3.1c0,0.4,0,0.7,0,1.1h0c0.6-0.8,1.5-1.2,2.5-1.2
		c2,0,3.3,1.3,3.3,4c0,2.8-1.6,4.4-4.3,4.4c-1.4,0-2.4-0.4-2.6-0.7c-0.2-0.2-0.3-0.4-0.2-0.6V97.8z M140.7,107.7
		c0.5,0.3,1,0.4,1.6,0.4c1.6,0,2.6-1.1,2.6-3.1c0-2-0.8-2.9-2.1-2.9c-1.4,0-2.1,1.4-2.1,1.4V107.7z"/>
	<path class="st0" d="M147.6,102.1c-0.1-0.2-0.1-0.4-0.2-0.5c0-0.4,0.4-0.7,0.8-0.7c0.2,0,0.3,0,0.4,0.2c0.1,0.2,0.2,0.4,0.2,0.5
		l1.8,4.8c0.2,0.7,0.4,1.2,0.4,1.2h0c0,0,0.1-0.5,0.4-1.2l1.7-4.8c0-0.2,0.1-0.4,0.2-0.5c0.1-0.1,0.3-0.2,0.4-0.2
		c0.4,0,0.7,0.2,0.8,0.6c0,0.2-0.1,0.3-0.1,0.5l-2.4,6.4c-1.3,3.4-2.6,4.6-4.4,4.6c-0.3,0-0.6-0.1-0.9-0.3c-0.1-0.1-0.2-0.3-0.2-0.5
		c0-0.3,0.2-0.5,0.5-0.5c0,0,0,0,0.1,0c0.2,0,0.4,0,0.6,0c1,0,1.8-0.9,2.5-2.6L147.6,102.1z"/>
	<path class="st0" d="M161.5,99c0-0.3,0.1-0.6,0.3-0.8c0.2-0.2,0.6-0.3,0.9-0.3c0.7,0,1,0.3,1.2,1l2.3,7c0.3,0.8,0.4,1.5,0.4,1.5h0
		c0,0,0.2-0.7,0.4-1.5l2.3-7c0.2-0.7,0.6-1,1.2-1c0.3,0,0.6,0.1,0.8,0.3c0.2,0.2,0.3,0.5,0.3,0.8l1,9.1c0,0.2,0,0.3,0,0.4
		c0,0.4-0.4,0.6-0.8,0.6c-0.2,0-0.4,0-0.6-0.2c-0.2-0.2-0.2-0.4-0.2-0.7l-0.6-6.9c-0.1-0.9-0.1-1.7-0.1-1.7h0l-2.8,8.5
		c-0.1,0.2-0.2,0.5-0.4,0.7c-0.2,0.2-0.4,0.3-0.7,0.2c-0.3,0-0.5-0.1-0.7-0.2c-0.2-0.2-0.3-0.4-0.4-0.7l-2.8-8.5h0
		c0,0,0,0.8-0.1,1.7l-0.6,6.9c0,0.4,0,0.6-0.2,0.7c-0.2,0.1-0.3,0.2-0.5,0.2c-0.4,0-0.8-0.2-0.8-0.6c0-0.1,0-0.3,0-0.4L161.5,99z"/>
	<path class="st0" d="M178.7,100.9c2.2,0,3.8,1.6,3.8,4c0,2.7-1.6,4.3-4,4.3c-2.2,0-3.8-1.6-3.8-4
		C174.7,102.5,176.3,100.9,178.7,100.9z M178.7,108c1.4,0,2.4-1,2.4-3s-1.1-3-2.4-3c-1.4,0-2.4,1-2.4,3S177.3,108,178.7,108z"/>
	<path class="st0" d="M184.7,101.5c0-0.3,0.2-0.6,0.5-0.6c0,0,0.1,0,0.1,0c0.4,0,0.6,0.2,0.6,0.6l0.1,0.6h0c0.6-0.8,1.5-1.3,2.5-1.3
		c1.9,0,3,1.2,3,3.3v4.3c0,0.4-0.2,0.6-0.7,0.6s-0.7-0.2-0.7-0.6v-4.1c0-1.6-0.7-2.3-1.9-2.3c-1.4,0-2.1,1.4-2.1,1.4v5.1
		c0,0.4-0.2,0.6-0.7,0.6c-0.5,0-0.7-0.2-0.7-0.6L184.7,101.5z"/>
	<path class="st0" d="M197.8,100.9c2.2,0,3.8,1.6,3.8,4c0,2.7-1.6,4.3-4,4.3c-2.2,0-3.8-1.6-3.8-4
		C193.7,102.5,195.4,100.9,197.8,100.9z M197.7,108c1.4,0,2.4-1,2.4-3s-1.1-3-2.4-3c-1.4,0-2.4,1-2.4,3S196.3,108,197.7,108
		L197.7,108z"/>
	<path class="st0" d="M203.2,102.1c-0.3,0-0.5-0.2-0.5-0.5c0,0,0,0,0-0.1c0-0.3,0.2-0.6,0.4-0.6c0,0,0,0,0.1,0h0.9l0.2-1.5
		c0.1-0.4,0.3-0.7,0.7-0.7c0.3,0,0.6,0.2,0.6,0.5c0,0,0,0.1,0,0.1v1.6h1.7c0.3,0,0.5,0.2,0.5,0.5c0,0,0,0,0,0.1
		c0,0.3-0.2,0.5-0.4,0.6c0,0,0,0-0.1,0h-1.7v4.6c0,0.9,0.3,1.2,0.9,1.2c0.3,0,0.6-0.1,0.9-0.2c0.2,0,0.4,0.2,0.4,0.4v0
		c0,0.2-0.1,0.4-0.2,0.4c-0.4,0.3-1,0.5-1.5,0.4c-1.4,0-2.1-0.7-2.1-2v-5L203.2,102.1L203.2,102.1z"/>
	<path class="st0" d="M208.6,102.1c-0.1-0.2-0.1-0.4-0.2-0.5c0-0.4,0.4-0.7,0.8-0.7c0.2,0,0.3,0,0.4,0.2c0.1,0.2,0.2,0.4,0.2,0.5
		l1.8,4.8c0.2,0.7,0.4,1.2,0.4,1.2h0c0,0,0.1-0.5,0.4-1.2l1.7-4.8c0-0.2,0.1-0.4,0.2-0.5c0.1-0.1,0.3-0.2,0.4-0.2
		c0.4,0,0.7,0.2,0.8,0.6c0,0.2-0.1,0.3-0.1,0.5l-2.4,6.4c-1.3,3.4-2.6,4.6-4.4,4.6c-0.3,0-0.6-0.1-0.9-0.3c-0.1-0.1-0.2-0.3-0.2-0.5
		c0-0.3,0.2-0.5,0.5-0.5c0,0,0,0,0.1,0c0.2,0,0.4,0,0.6,0c1,0,1.8-0.9,2.5-2.6L208.6,102.1z"/>
	<path class="st0" d="M217.5,101.5c0-0.3,0.2-0.6,0.5-0.6c0,0,0.1,0,0.1,0c0.4,0,0.6,0.2,0.6,0.6l0.1,0.6h0c0.6-0.8,1.5-1.3,2.5-1.3
		c2,0,3.3,1.3,3.3,4c0,2.8-1.6,4.4-4.3,4.4c-0.5,0-1-0.1-1.4-0.2l0,0c0,0.3,0,0.7,0,1v2.2c0,0.4-0.2,0.6-0.7,0.6
		c-0.5,0-0.7-0.2-0.7-0.6L217.5,101.5z M219,107.7c0.5,0.2,1,0.4,1.6,0.3c1.6,0,2.6-1.1,2.6-3.1c0-2-0.8-2.9-2.1-2.9
		c-1.4,0-2.1,1.4-2.1,1.4V107.7z"/>
	<path class="st0" d="M227.8,105.2L227.8,105.2c0,1.8,1.1,2.8,2.6,2.8c1.2,0,1.6-0.4,2-0.4c0.2,0,0.5,0.2,0.5,0.4v0
		c0,0.2-0.1,0.4-0.2,0.5c-0.3,0.3-1.2,0.7-2.5,0.7c-2.4,0-3.9-1.5-3.9-3.9c0-2.8,1.6-4.4,3.8-4.4c1.8,0,3.2,1.3,3.2,3.4
		c0,0.6-0.3,0.9-0.8,0.9L227.8,105.2z M231.8,104.1c-0.2-1.5-0.8-2.2-2-2.2c-1,0-1.8,0.7-2.1,2.2H231.8z"/>
</g>
</svg>
