<?xml version="1.0" encoding="utf-8"?>
<!-- Generator: Adobe Illustrator 25.4.1, SVG Export Plug-In . SVG Version: 6.00 Build 0)  -->
<svg version="1.1" id="Camada_1" xmlns="http://www.w3.org/2000/svg" xmlns:xlink="http://www.w3.org/1999/xlink" x="0px" y="0px"
	 viewBox="0 0 250 250" style="enable-background:new 0 0 250 250;" xml:space="preserve">
<style type="text/css">
	.st0{clip-path:url(#SVGID_00000085209710717981069010000013914458047612553645_);}
	.st1{fill:#333333;}
	.st2{fill:#FFFFFF;}
</style>
<g>
	<defs>
		<rect id="SVGID_1_" width="250" height="250"/>
	</defs>
	<clipPath id="SVGID_00000064336580432400378070000010332073129454076327_">
		<use xlink:href="#SVGID_1_"  style="overflow:visible;"/>
	</clipPath>
	<g style="clip-path:url(#SVGID_00000064336580432400378070000010332073129454076327_);">
		<path class="st1" d="M-80-75c133.3,0,266.59,0,400,0c0,133.24,0,266.53,0,400c-133.26,0-266.63,0-400,0C-80,191.79-80,58.42-80-75
			z M37.03,216.09c1.45,0.15,2.42,0.34,3.38,0.34c28.5,0.01,57.01,0.53,85.5-0.11c52.43-1.17,93.14-43.25,93.16-95.51
			c0.01-24.67,0.01-49.35-0.01-74.02c0-1.76-0.15-3.52-0.23-5.25c-24.43,0-48.31,0-72.56,0c0,2.24,0,4.05,0,5.86
			c0,24.17,0.01,48.35,0,72.52c-0.01,17.1-9.47,26.52-26.68,26.53c-25.5,0.02-51,0.01-76.5,0.01c-1.94,0-3.89,0-6.06,0
			C37.03,169.98,37.03,192.77,37.03,216.09z M61.43,134.27c24.12,0,48.03,0,71.92,0c2.01-49.66-45.06-94.71-96.2-92.52
			c0,23.04,0,46.09,0,69.11C51.25,112.74,59.63,120.14,61.43,134.27z"/>
		<path class="st2" d="M37.03,216.09c0-23.32,0-46.11,0-69.63c2.18,0,4.12,0,6.06,0c25.5,0,51,0.02,76.5-0.01
			c17.21-0.01,26.67-9.43,26.68-26.53c0.01-24.17,0-48.35,0-72.52c0-1.81,0-3.62,0-5.86c24.25,0,48.13,0,72.56,0
			c0.08,1.73,0.23,3.49,0.23,5.25c0.02,24.67,0.02,49.35,0.01,74.02c-0.02,52.26-40.73,94.34-93.16,95.51
			c-28.49,0.64-57,0.12-85.5,0.11C39.45,216.43,38.48,216.24,37.03,216.09z"/>
		<path class="st2" d="M61.43,134.27c-1.8-14.13-10.18-21.53-24.27-23.42c0-23.02,0-46.07,0-69.11
			c51.13-2.19,98.21,42.87,96.2,92.52C109.46,134.27,85.54,134.27,61.43,134.27z"/>
	</g>
</g>
</svg>
