<?xml version="1.0" encoding="utf-8"?>
<!-- Generator: Adobe Illustrator 25.4.1, SVG Export Plug-In . SVG Version: 6.00 Build 0)  -->
<svg version="1.1" id="Layer_1" xmlns="http://www.w3.org/2000/svg" xmlns:xlink="http://www.w3.org/1999/xlink" x="0px" y="0px"
	 viewBox="0 0 493.2 60.1" style="enable-background:new 0 0 493.2 60.1;" xml:space="preserve">
<style type="text/css">
	.st0{fill:#333333;}
</style>
<g>
	<g>
		<path class="st0" d="M24,60H0V37.6h24c6.8,0,12.3-5.5,12.3-12.3v-24h22.4v24C58.6,44.4,43.2,60,24,60z"/>
	</g>
	<g>
		<path class="st0" d="M30.4,30H8c0-4.3-3.5-7.6-7.6-7.6V0C16.8,0,30.4,13.6,30.4,30z"/>
	</g>
	<g>
		<polygon class="st0" points="86.5,44.2 86.5,34.1 96.6,19.3 90.4,19.3 84.2,29.4 77.9,19.3 71.7,19.3 81.8,34.1 81.8,44.2 		"/>
		<path class="st0" d="M115.7,44.4c7.6,0,12.3-5.3,12.3-12.5s-4.7-12.5-12.3-12.5s-12.5,5.3-12.5,12.5
			C103.2,39.1,107.9,44.4,115.7,44.4z M115.7,39.7c-4.7,0-7.8-3.5-7.8-7.8c0-4.5,3.1-7.8,7.8-7.8c4.7,0,7.6,3.3,7.6,7.8
			C123.3,36.2,120.4,39.7,115.7,39.7z"/>
		<path class="st0" d="M145.9,44.4c8,0,11.1-4.3,11.1-10.3V19.3h-4.7v14.6c0,3.5-2.3,5.8-6.4,5.8c-4.3,0-6.4-2.3-6.4-5.8V19.3h-4.7
			v14.6C134.6,40.1,137.9,44.4,145.9,44.4z"/>
		<polygon class="st0" points="191.3,44.2 198.3,19.3 192.3,19.3 188,37.4 183.3,19.3 179,19.3 174.2,37.4 169.7,19.3 163.8,19.3 
			171,44.2 176.7,44.2 181,27.1 185.5,44.2 		"/>
		<path class="st0" d="M217.6,44.4c7.6,0,12.3-5.3,12.3-12.5s-4.7-12.5-12.3-12.5c-7.6,0-12.5,5.3-12.5,12.5S210,44.4,217.6,44.4z
			 M217.6,39.7c-4.7,0-7.8-3.5-7.8-7.8c0-4.5,3.1-7.8,7.8-7.8c4.7,0,7.6,3.3,7.6,7.8C225.2,36.2,222.3,39.7,217.6,39.7z"/>
		<path class="st0" d="M256.6,44.2l-4.9-8.2c2.3-0.6,4.7-3.1,4.7-8c0-5.3-2.9-8.8-8-8.8h-11.7v25.1h4.7v-7.6h4.3l5.5,7.6H256.6
			L256.6,44.2z M247.6,31.9h-6.2v-8h6.2c2.3,0,4.1,1.4,4.1,3.9C251.7,30.4,249.9,31.9,247.6,31.9z"/>
		<polygon class="st0" points="286.4,44.2 275.8,31.1 285.8,19.3 279.2,19.3 270.4,30.4 270.4,19.3 265.7,19.3 265.7,44.2 
			270.4,44.2 270.4,36.6 272.3,34.3 279.9,44.2 		"/>
		<polygon class="st0" points="299.2,44.2 299.2,34.1 311.5,34.1 311.5,29.4 299.2,29.4 299.2,23.9 311.7,23.9 311.7,19.1 
			294.5,19.1 294.5,44.2 		"/>
		<path class="st0" d="M333.5,44.4c7.6,0,12.3-5.3,12.3-12.5s-4.7-12.5-12.3-12.5c-7.6,0-12.5,5.3-12.5,12.5S325.7,44.4,333.5,44.4z
			 M333.5,39.7c-4.7,0-7.8-3.5-7.8-7.8c0-4.5,3.1-7.8,7.8-7.8s7.6,3.3,7.6,7.8C341.1,36.2,338.2,39.7,333.5,39.7z"/>
		<path class="st0" d="M372.5,44.2l-4.9-8.2c2.3-0.6,4.7-3.1,4.7-8c0-5.3-2.9-8.8-8-8.8h-11.7v25.1h4.7v-7.6h4.3l5.5,7.6H372.5
			L372.5,44.2z M363.5,31.9h-6.2v-8h6.2c2.3,0,4.1,1.4,4.1,3.9C367.6,30.4,365.8,31.9,363.5,31.9z"/>
		<polygon class="st0" points="391.2,44.2 391.2,23.9 398.4,23.9 398.4,19.1 379.1,19.1 379.1,23.9 386.5,23.9 386.5,44.2 		"/>
		<polygon class="st0" points="430.3,44.2 430.3,19.3 425.5,19.3 425.5,29.4 412.6,29.4 412.6,19.3 407.9,19.3 407.9,44.2 
			412.6,44.2 412.6,34.1 425.5,34.1 425.5,44.2 		"/>
		<polygon class="st0" points="456.6,44.4 456.6,39.7 444,39.7 444,34.1 456.2,34.1 456.2,29.4 444,29.4 444,23.9 456.6,23.9 
			456.6,19.1 439.3,19.1 439.3,44.4 		"/>
		<polygon class="st0" points="493.2,44.2 493.2,19.3 485.5,19.3 479.4,35 473.4,19.3 465.8,19.3 465.8,44.2 470.5,44.2 470.5,26.3 
			478.4,44.2 480.6,44.2 488.4,26.3 488.4,44.2 		"/>
	</g>
</g>
</svg>
