<svg xmlns="http://www.w3.org/2000/svg" viewBox="0 0 883 261"><path d="M94.05,138.45a86.41,86.41,0,0,0,14-12.89c7.56-8.84,15.11-23.77,15.29-36.66.22-26.34-31.1-26.9-51-26.9H34.21V183.61l23.21,0V156.51a152.87,152.87,0,0,0,18.06-6.82c5.15,2.21,10.86,7.19,16.39,13.45,7.19,8.11,11.42,15.66,11,20.45h24.29C128,173.09,110.63,148.77,94.05,138.45Zm-7.89-18.77A74.3,74.3,0,0,1,57.42,135.9V81.73H70.5c22.84,0,29.29,1.48,29.29,11.06C99.79,102.18,93.71,112.87,86.16,119.68Z" transform="translate(0 0)" fill="#1e2019"/><path d="M196.34,107.66h-.19c-3.86-7.13-12.34-11-22.1-11-22.66,0-39.43,20.44-39.43,45.68,0,25.06,16.22,43.66,38.14,43.66,7.92,0,17.31-2.39,23.39-11.79h.56l2,9.4h19.53l0-85.11H196.34Zm-3.52,50.89c-2.95,5.53-7.92,9.77-16.21,9.77-14.37,0-19.16-13.08-19.16-27.08,0-16.77,6.81-26.9,19-26.9,8.29,0,13.45,4.79,16.4,10.87,2.21,4.42,3.5,10.69,3.5,17.13A35.5,35.5,0,0,1,192.82,158.55Z" transform="translate(0 0)" fill="#1e2019"/><path d="M263.92,92.79c.19-10.32,4.05-19.9,14.92-19.9a26.46,26.46,0,0,1,10.32,2.4l8.11-14.56c-4.43-4-10.51-5.71-16.95-5.71-25.06,0-38.14,17.14-38.14,38.87V98.5H242l-13.08,3.87v12.71h13.26v68.53h21.93V115.08h16.58V98.5H264.11Z" transform="translate(0 0)" fill="#1e2019"/><path d="M318.45,96.29c-11.24,0-22.11,2.21-31.69,12.71l12.53,11.39c6.08-5.53,12.34-7,19.16-7,7.55,0,14,4.24,14.18,13.08,0,3.53-3.31,5.16-5.52,5.53l-16.95,3.71c-15.29,2.95-27.63,10.5-27.63,25.06,0,14.92,15.65,24.5,28.92,24.68,6.81,0,18.42-4,22.47-10.68h.19l2.58,8.84h18.05V126.87C354.74,103.66,336.13,96.47,318.45,96.29Zm10.13,65.21c-3.13,3.87-8.26,6.82-13.26,6.82s-9.77-3.69-9.77-8.69c0-3.1,2.18-7.16,9-9l12-3.13c1.85-.6,4.79-1.66,6.08-4.6.19,1.65.37,4.6.37,6.44A24.6,24.6,0,0,1,328.58,161.5Z" transform="translate(0 0)" fill="#1e2019"/><polygon points="599 62 510 62 510 81.55 542.81 81.55 542.81 183.61 566 183.61 566 81.55 599 81.55 599 62" fill="#1e2019"/><path d="M652.24,105.5c-1.32,16-7.74,37-17.32,54.16-9.58-16.95-16.21-37.95-17.32-54.16v-7H595.5v7.92c1.29,21.77,11.42,50.29,26.71,72.77l-.18.37c-10.87,18.05-15.66,21-18.43,21.36-3.31,0-9-.73-11.6-2.39v18.61a2.84,2.84,0,0,0,.73,2.21,16.37,16.37,0,0,0,5.35.55c24.68,0,46.55-39.61,56.55-56.92,10.5-18.43,16.4-39.8,17.5-56.56V98.5H652.24Z" transform="translate(0 0)" fill="#1e2019"/><path d="M731.26,96.34c-14.18.32-22.47,11-22.47,11h-.19V98.5H687.42V218.61l22.11,0V185.87c0-2.4,0-5.9-.19-8.84h.19c7.18,5.34,13.26,8.84,21.92,8.84,12.89,0,34.08-8.32,34.08-45.32C765.53,107.21,745.82,96,731.26,96.34Zm-2.73,71.27c-6.85,0-12.74-3.68-19-9.21-.37-5.9-.74-12.16-.74-16.4,0-15.68,5.34-27.66,18.08-27.63,8.66,0,15.85,7.19,15.85,26.53C742.72,163.19,735.16,167.61,728.53,167.61Z" transform="translate(0 0)" fill="#1e2019"/><rect width="883" height="261" fill="none"/><path d="M416.63,177.71c-16,0-25.6-10.68-29.1-24.13h30.39l2.31-6.58h-51l-2.13,6.58h11c4.05,18.79,18.05,31.69,38.69,31.69,12.52,0,22.47-5.9,30.39-13.27l-6.46-5.34C434.5,172.74,426.21,177.71,416.63,177.71Z" transform="translate(0 0)" fill="#9e005d"/><path d="M405.76,83.58c3.69,0,6.08-2,6.08-7.92,0-4.43-2.39-7.19-6.08-7.19s-6.08,2.76-6.08,7.19C399.68,81.55,402.08,83.58,405.76,83.58Z" transform="translate(0 0)" fill="#9e005d"/><path d="M420.5,130.74H387c2.92-12.16,11-23.74,24.47-24.14,7.19,0,13.27,4.24,17.69,9.22l3.13-8.11a29.72,29.72,0,0,0-20.82-8.47c-18.6,0-29.66,15.47-33.16,31.5h-9L367.6,137h50.7Z" transform="translate(0 0)" fill="#9e005d"/><path d="M809.92,83.58c3.69,0,6.08-2,6.08-7.92,0-4.43-2.39-7.19-6.08-7.19s-6.08,2.76-6.08,7.19C803.84,81.55,806.24,83.58,809.92,83.58Z" transform="translate(0 0)" fill="#9e005d"/><path d="M824.66,130.74H791.13c3-12.16,11-23.77,24.5-24.14,7.19,0,13.27,4.24,17.69,9.22l3.13-8.11a29.72,29.72,0,0,0-20.82-8.47c-18.6,0-29.66,15.47-33.16,31.5h-9l-1.7,6.26h50.69Z" transform="translate(0 0)" fill="#9e005d"/><path d="M844.92,166.66c-6.26,6.08-14.55,11.05-24.13,11.05-16,0-25.61-10.68-29.11-24.13h30.4l2.31-6.58h-51l-2.13,6.58h11c4,18.79,18,31.69,38.68,31.69,12.53,0,22.48-5.9,30.4-13.27Z" transform="translate(0 0)" fill="#9e005d"/></svg>