
<svg id="Camada_1" data-name="Camada 1" xmlns="http://www.w3.org/2000/svg" viewBox="0 0 883 261"><path class="cls-1" d="M6.21,163.61V42H44.34c19.9,0,51.22.56,51,26.9-.18,12.89-7.73,27.82-15.29,36.66a86.73,86.73,0,0,1-14,12.89c16.58,10.32,33.9,34.64,33.16,45.14H74.92c.37-4.79-3.86-12.34-11.05-20.45-5.53-6.26-11.24-11.24-16.39-13.45a152.83,152.83,0,0,1-18.06,6.82v27.08ZM29.42,61.73V115.9A74.32,74.32,0,0,0,58.16,99.68c7.55-6.81,13.63-17.5,13.63-26.89,0-9.58-6.45-11.06-29.29-11.06Z" transform="translate(28 20)"/><path class="cls-1" d="M190.24,163.61H170.71l-2-9.4h-.56c-6.08,9.4-15.47,11.79-23.39,11.79-21.92,0-38.14-18.6-38.14-43.66,0-25.24,16.77-45.68,39.43-45.68,9.76,0,18.24,3.87,22.1,11h.19V78.5h21.92Zm-60.79-42.37c0,14,4.79,27.08,19.16,27.08,8.29,0,13.26-4.24,16.21-9.77a35.56,35.56,0,0,0,3.5-16.21c0-6.44-1.29-12.71-3.5-17.13-2.95-6.08-8.11-10.87-16.4-10.87C136.26,94.34,129.45,104.47,129.45,121.24Z" transform="translate(28 20)"/><path class="cls-1" d="M236.11,78.5h16.58V95.08H236.11v68.53H214.18V95.08H200.92V82.37L214,78.5h.18V73.89c0-21.73,13.08-38.87,38.14-38.87,6.44,0,12.52,1.66,16.95,5.71l-8.11,14.56a26.52,26.52,0,0,0-10.32-2.4c-10.87,0-14.73,9.58-14.92,19.9Z" transform="translate(28 20)"/><path class="cls-1" d="M326.74,106.87v56.74H308.69l-2.58-8.84h-.19c-4.05,6.63-15.66,10.68-22.47,10.68-13.27-.18-28.92-9.76-28.92-24.68,0-14.56,12.34-22.11,27.63-25.06L299.11,112c2.21-.37,5.52-2,5.52-5.53-.18-8.84-6.63-13.08-14.18-13.08-6.82,0-13.08,1.47-19.16,7L258.76,89c9.58-10.5,20.45-12.71,31.69-12.71C308.13,76.47,326.74,83.66,326.74,106.87Zm-39.42,41.45c5,0,10.13-2.95,13.26-6.82A24.57,24.57,0,0,0,305,129.34c0-1.84-.18-4.79-.37-6.44-1.29,2.94-4.23,4-6.08,4.6l-12,3.13c-6.82,1.84-9,5.9-9,9C277.55,144.63,282.34,148.32,287.32,148.32Z" transform="translate(28 20)"/><path class="cls-1" d="M514.81,163.61V61.55H482V42h89V61.55H538V163.61Z" transform="translate(28 20)"/><path class="cls-1" d="M564,178.53c2.58,1.66,8.29,2.39,11.6,2.39,2.77-.36,7.56-3.31,18.43-21.36l.18-.37c-15.29-22.48-25.42-51-26.71-72.77V78.5h22.1v7c1.11,16.21,7.74,37.21,17.32,54.16,9.58-17.13,16-38.13,17.32-54.16v-7h19.89v7.92c-1.1,16.76-7,38.13-17.5,56.56-10,17.31-31.87,56.92-56.55,56.92a16.37,16.37,0,0,1-5.35-.55,2.84,2.84,0,0,1-.73-2.21Z" transform="translate(28 20)"/><path class="cls-1" d="M659.42,198.61V78.5H680.6v8.84h.19s8.29-10.68,22.47-11c14.56-.37,34.27,10.87,34.27,44.21,0,37-21.19,45.32-34.08,45.32-8.66,0-14.74-3.5-21.92-8.84h-.19c.19,2.94.19,6.44.19,8.84v32.79ZM680.79,122c0,4.24.37,10.5.74,16.4,6.26,5.53,12.15,9.21,19,9.21,6.63,0,14.19-4.42,14.19-26.71,0-19.34-7.19-26.53-15.85-26.53C686.13,94.34,680.79,106.32,680.79,122Z" transform="translate(28 20)"/><rect class="cls-2" width="883" height="261"/><path class="cls-3" d="M412.77,146.66c-6.27,6.08-14.56,11.05-24.14,11.05-16,0-25.6-10.68-29.1-24.13h30.39l2.31-6.58h-51l-2.13,6.58h11.05c4.05,18.79,18.05,31.69,38.69,31.69,12.52,0,22.47-5.9,30.39-13.27Z" transform="translate(28 20)"/><path class="cls-3" d="M377.76,63.58c3.69,0,6.08-2,6.08-7.92,0-4.43-2.39-7.19-6.08-7.19s-6.08,2.76-6.08,7.19C371.68,61.55,374.08,63.58,377.76,63.58Z" transform="translate(28 20)"/><path class="cls-3" d="M390.3,117l2.2-6.26H359C361.92,98.58,370,87,383.47,86.6c7.19,0,13.27,4.24,17.69,9.22l3.13-8.11a29.71,29.71,0,0,0-20.82-8.47c-18.6,0-29.66,15.47-33.16,31.5h-9L339.6,117Z" transform="translate(28 20)"/><path class="cls-3" d="M781.92,63.58c3.69,0,6.08-2,6.08-7.92,0-4.43-2.39-7.19-6.08-7.19s-6.08,2.76-6.08,7.19C775.84,61.55,778.24,63.58,781.92,63.58Z" transform="translate(28 20)"/><path class="cls-3" d="M794.46,117l2.2-6.26H763.13c3-12.16,11-23.77,24.5-24.14,7.19,0,13.27,4.24,17.69,9.22l3.13-8.11a29.71,29.71,0,0,0-20.82-8.47c-18.6,0-29.66,15.47-33.16,31.5h-9l-1.7,6.26Z" transform="translate(28 20)"/><path class="cls-3" d="M816.92,146.66c-6.26,6.08-14.55,11.05-24.13,11.05-16,0-25.61-10.68-29.11-24.13h30.4l2.31-6.58h-51l-2.13,6.58h11c4.05,18.79,18.05,31.69,38.68,31.69,12.53,0,22.48-5.9,30.4-13.27Z" transform="translate(28 20)"/></svg>